#!OML:ASF Y:\EmotionMaleHayes\Project 1\Capture day 1\Session 1\Male1.ASF
:FULLY-SPECIFIED
:DEGREES
334
root 47.8705 17.2656 -1.08812 570.021 94.539 574.972
lowerback 9.73282 1.98979 -3.64372
upperback 1.9019 2.32101 -0.194668
thorax -3.60878 1.21375 1.54846
lowerneck -23.9812 0.624571 0.937023
upperneck 18.8564 0.662374 -0.457286
head 9.94718 0.327387 -0.212371
rclavicle -2.50034e-015 -1.98785e-015
rhumerus -31.5644 2.22401 -85.6042
rradius 40.3364
rwrist -7.99568
rhand -10.8681 -32.781
rfingers 7.12502
rthumb 15.1476 -62.2066
lclavicle -2.50034e-015 -1.98785e-015
lhumerus -34.9214 -9.41657 88.9117
lradius 32.1651
lwrist 0.578349
lhand -18.4653 -25.422
lfingers 7.12502
lthumb 7.82121 4.41334
rfemur 8.22031 -2.73362 13.4342
rtibia 5.11532
rfoot -10.377 0.92727
rtoes 11.7899
lfemur 9.99557 2.44247 -18.3891
ltibia 3.93146
lfoot -11.3196 7.83025
ltoes 9.41317
335
root 47.8761 17.2645 -1.09211 570.826 94.5053 575.763
lowerback 9.84885 1.97354 -3.76205
upperback 1.85539 2.28043 -0.198543
thorax -3.72364 1.19691 1.61142
lowerneck -24.1239 0.58263 1.00081
upperneck 19.1189 0.61029 -0.567185
head 10.0668 0.295304 -0.269449
rclavicle -1.23619e-014 8.74653e-015
rhumerus -31.9797 1.82303 -85.7495
rradius 39.7845
rwrist -7.68502
rhand -10.8424 -32.5202
rfingers 7.12502
rthumb 15.1723 -61.9439
lclavicle -1.23619e-014 8.74653e-015
lhumerus -34.9213 -9.75932 89.1225
lradius 32.965
lwrist 1.44786
lhand -18.7633 -25.4855
lfingers 7.12502
lthumb 7.53361 4.36037
rfemur 8.19773 -2.73191 13.3805
rtibia 5.19248
rfoot -10.4673 0.827097
rtoes 11.4248
lfemur 9.99237 2.35999 -18.4604
ltibia 3.90973
lfoot -11.1856 7.80338
ltoes 9.39718
336
root 47.8886 17.2629 -1.09947 571.505 94.4944 576.412
lowerback 9.50551 1.96732 -3.84719
upperback 2.09408 2.28999 -0.184162
thorax -3.28894 1.19511 1.68877
lowerneck -24.1643 0.649175 0.903624
upperneck 18.963 0.696646 -0.416354
head 10.0177 0.345514 -0.186764
rclavicle 8.30547e-015 7.45443e-015
rhumerus -31.9547 1.39345 -85.8041
rradius 39.1728
rwrist -7.42589
rhand -10.7424 -32.427
rfingers 7.12502
rthumb 15.2687 -61.8434
lclavicle 8.30547e-015 7.45443e-015
lhumerus -34.45 -10.1205 89.3268
lradius 33.7231
lwrist 2.32091
lhand -18.8812 -25.318
lfingers 7.12502
lthumb 7.41986 4.53183
rfemur 8.22531 -2.94497 13.2366
rtibia 5.17452
rfoot -10.418 0.962509
rtoes 10.8015
lfemur 10.0345 2.42693 -18.5269
ltibia 3.83901
lfoot -11.1174 7.69887
ltoes 8.73714
337
root 47.9074 17.2638 -1.11258 573.543 94.4021 578.36
lowerback 9.42555 1.92042 -3.83496
upperback 2.00947 2.22638 -0.241875
thorax -3.32625 1.164 1.63098
lowerneck -23.9279 0.733414 0.940894
upperneck 18.9859 0.798114 -0.390556
head 9.98493 0.399524 -0.16853
rclavicle 7.37367e-015 -5.06901e-015
rhumerus -32.5143 1.02536 -85.9452
rradius 38.7465
rwrist -7.11311
rhand -10.5897 -32.5029
rfingers 7.12502
rthumb 15.4157 -61.9081
lclavicle 7.37367e-015 -5.06901e-015
lhumerus -34.4693 -10.4302 89.4993
lradius 34.4234
lwrist 2.95442
lhand -19.0714 -25.472
lfingers 7.12502
lthumb 7.2362 4.38425
rfemur 8.2689 -3.58747 12.9047
rtibia 5.10637
rfoot -10.2893 1.39866
rtoes 10.0815
lfemur 10.0368 2.5072 -18.7143
ltibia 3.76233
lfoot -11.2005 7.47553
ltoes 8.30122
338
root 47.9222 17.2692 -1.12555 574.865 94.2318 579.47
lowerback 9.2593 1.83259 -3.72031
upperback 1.8703 2.11941 -0.287392
thorax -3.36705 1.1103 1.5354
lowerneck -23.6354 0.733417 1.01058
upperneck 18.9799 0.793346 -0.449135
head 9.93161 0.396691 -0.201983
rclavicle 1.20917e-014 -5.06901e-015
rhumerus -33.054 0.691425 -86.1245
rradius 38.3325
rwrist -6.65275
rhand -10.4278 -32.7022
rfingers 7.12502
rthumb 15.5716 -62.0954
lclavicle 1.20917e-014 -5.06901e-015
lhumerus -34.55 -10.7116 89.6327
lradius 35.1107
lwrist 3.45183
lhand -19.5175 -25.7817
lfingers 7.12502
lthumb 6.80564 4.0889
rfemur 8.12037 -4.18602 12.7415
rtibia 5.15564
rfoot -10.2743 1.75984
rtoes 9.64784
lfemur 9.87749 2.40991 -18.8354
ltibia 3.70852
lfoot -11.2078 7.39219
ltoes 7.26995
339
root 47.9371 17.2644 -1.12767 570.692 94 575.404
lowerback 9.33332 1.79267 -3.44006
upperback 1.88011 2.09424 -0.175559
thorax -3.39107 1.09552 1.49538
lowerneck -23.6359 0.736718 1.20245
upperneck 19.1947 0.786838 -0.6638
head 10.0105 0.382876 -0.310168
rclavicle 9.58515e-015 -1.02871e-014
rhumerus -33.3664 0.485697 -86.286
rradius 37.7563
rwrist -6.20744
rhand -10.324 -32.9995
rfingers 7.12502
rthumb 15.6716 -62.3848
lclavicle 9.58515e-015 -1.02871e-014
lhumerus -34.5189 -11.0571 89.8124
lradius 35.741
lwrist 4.03229
lhand -19.9264 -25.8357
lfingers 7.12502
lthumb 6.4109 4.04724
rfemur 8.31472 -3.89672 13.2876
rtibia 5.11157
rfoot -10.452 1.4258
rtoes 9.46809
lfemur 10.1249 2.32441 -18.3697
ltibia 3.59304
lfoot -11.1388 7.38237
ltoes 6.18663
340
root 47.9389 17.266 -1.12923 567.442 93.7608 572.093
lowerback 9.27445 1.73837 -3.22499
upperback 1.93708 2.05094 -0.0612576
thorax -3.29385 1.07065 1.50142
lowerneck -23.8994 0.698981 1.17944
upperneck 19.4197 0.747077 -0.686888
head 10.1378 0.359892 -0.320263
rclavicle 1.99406e-015 -6.21202e-015
rhumerus -33.4143 0.162071 -86.3478
rradius 37.0696
rwrist -5.79894
rhand -10.1047 -33.0044
rfingers 7.12502
rthumb 15.8828 -62.373
lclavicle 1.99406e-015 -6.21202e-015
lhumerus -34.2472 -11.4274 89.9872
lradius 36.2613
lwrist 4.6411
lhand -20.0647 -25.8271
lfingers 7.12502
lthumb 6.27739 4.05989
rfemur 8.17849 -3.523 13.8358
rtibia 5.26157
rfoot -10.6545 0.92477
rtoes 9.83184
lfemur 10.062 2.22951 -17.9798
ltibia 3.5926
lfoot -11.1038 7.36919
ltoes 6.40564
341
root 47.9462 17.2672 -1.12385 574.642 94.1058 579.297
lowerback 9.15291 1.79437 -4.03678
upperback 2.04781 2.05521 -0.177589
thorax -3.13436 1.07719 1.84105
lowerneck -23.9749 0.629739 0.952045
upperneck 19.3766 0.677985 -0.47747
head 10.1333 0.336254 -0.219098
rclavicle -1.63997e-015 -8.54774e-015
rhumerus -33.416 -0.378194 -86.3347
rradius 36.3185
rwrist -5.52696
rhand -10.076 -32.3736
rfingers 7.12502
rthumb 15.9104 -61.7401
lclavicle -1.63997e-015 -8.54774e-015
lhumerus -34.0109 -11.722 90.1267
lradius 36.8616
lwrist 5.20212
lhand -20.0193 -25.7691
lfingers 7.12502
lthumb 6.3212 4.11656
rfemur 8.1372 -2.97219 13.2659
rtibia 5.32362
rfoot -10.8822 0.431769
rtoes 9.93706
lfemur 10.0851 2.17405 -18.6728
ltibia 3.51438
lfoot -11.1415 7.48555
ltoes 7.04785
342
root 47.9436 17.2731 -1.12632 573.727 94.0118 578.133
lowerback 9.08615 1.78398 -3.95382
upperback 1.95424 2.04785 -0.155257
thorax -3.19234 1.07384 1.81883
lowerneck -23.5955 0.668778 0.750587
upperneck 19.125 0.757634 -0.281748
head 9.97436 0.382374 -0.105485
rclavicle -4.96962e-017 6.95746e-016
rhumerus -33.5921 -0.726327 -86.3858
rradius 35.6013
rwrist -5.53694
rhand -10.2583 -31.9016
rfingers 7.12502
rthumb 15.7349 -61.282
lclavicle -4.96962e-017 6.95746e-016
lhumerus -33.9557 -12.0301 90.286
lradius 37.5544
lwrist 5.70636
lhand -20.0764 -25.7103
lfingers 7.12502
lthumb 6.26602 4.17707
rfemur 7.72461 -2.9654 13.4366
rtibia 5.5652
rfoot -10.9814 0.388706
rtoes 9.53265
lfemur 9.76586 2.09087 -18.5677
ltibia 3.57664
lfoot -11.151 7.54988
ltoes 6.86933
343
root 47.9726 17.2647 -1.13121 572.4 93.7854 576.994
lowerback 9.03242 1.72023 -3.81609
upperback 2.0719 1.98675 -0.0577325
thorax -3.03542 1.0395 1.85367
lowerneck -23.6035 0.632436 0.534731
upperneck 19.2326 0.75066 -0.141971
head 10.0128 0.380698 -0.0214427
rclavicle -8.56327e-015 1.64991e-014
rhumerus -33.8113 -0.670286 -86.4665
rradius 34.9815
rwrist -5.68267
rhand -10.2685 -31.9025
rfingers 7.12502
rthumb 15.725 -61.2837
lclavicle -8.56327e-015 1.64991e-014
lhumerus -33.8837 -12.2249 90.4959
lradius 38.1746
lwrist 6.03162
lhand -20.3177 -25.8523
lfingers 7.12502
lthumb 6.03312 4.04176
rfemur 8.12553 -3.34442 13.522
rtibia 5.51218
rfoot -10.9147 0.755463
rtoes 9.64276
lfemur 10.2462 2.04763 -18.4046
ltibia 3.27139
lfoot -11.0095 7.42515
ltoes 6.32664
344
root 47.993 17.2671 -1.15104 589.939 94.4077 594.382
lowerback 8.69196 1.63225 -5.03743
upperback 2.06899 1.76771 -0.441239
thorax -2.85822 0.936349 2.17546
lowerneck -23.5697 0.7196 0.590194
upperneck 19.3103 0.863416 -0.181842
head 10.0356 0.432482 -0.0273396
rclavicle 1.5996e-015 -2.45499e-014
rhumerus -34.1148 -0.903318 -86.5163
rradius 34.5135
rwrist -5.57493
rhand -10.0383 -32.0881
rfingers 7.12502
rthumb 15.9468 -61.4517
lclavicle 1.5996e-015 -2.45499e-014
lhumerus -33.8255 -12.4878 90.6543
lradius 38.687
lwrist 6.27838
lhand -20.5441 -26.0061
lfingers 7.12502
lthumb 5.81448 3.89417
rfemur 8.09006 -4.75355 11.353
rtibia 5.69824
rfoot -10.6824 1.92755
rtoes 10.1537
lfemur 10.1083 2.1245 -20.2782
ltibia 3.20038
lfoot -10.9058 7.08872
ltoes 6.64483
345
root 47.9971 17.2608 -1.14206 585.557 94.1522 590.171
lowerback 8.86625 1.66307 -4.81013
upperback 2.12681 1.8252 -0.317938
thorax -2.89653 0.963885 2.16581
lowerneck -23.4743 0.821589 0.75764
upperneck 19.3426 0.987775 -0.34333
head 10.0325 0.483131 -0.0932405
rclavicle -4.68697e-015 2.02263e-014
rhumerus -34.438 -1.51296 -86.498
rradius 34.1805
rwrist -5.17578
rhand -9.76186 -32.3415
rfingers 7.12502
rthumb 16.213 -61.6835
lclavicle -4.68697e-015 2.02263e-014
lhumerus -33.7563 -12.8926 90.7644
lradius 39.1688
lwrist 6.64928
lhand -20.5239 -26.1063
lfingers 7.12502
lthumb 5.83406 3.79341
rfemur 8.26285 -3.92665 12.1347
rtibia 5.64596
rfoot -10.927 1.16092
rtoes 10.5589
lfemur 10.3718 2.13681 -19.6311
ltibia 3.1128
lfoot -10.9906 7.02747
ltoes 7.50142
346
root 48.0002 17.2618 -1.14143 588.823 94.4213 593.341
lowerback 8.71074 1.69939 -5.2454
upperback 2.15836 1.84354 -0.417047
thorax -2.78811 0.973355 2.30931
lowerneck -23.4905 0.823803 0.713459
upperneck 19.3564 1.00726 -0.346971
head 10.0403 0.488263 -0.0842516
rclavicle -3.32343e-016 -2.18663e-015
rhumerus -34.6029 -1.84978 -86.5285
rradius 33.7586
rwrist -5.02984
rhand -9.95526 -32.2244
rfingers 7.12502
rthumb 16.0267 -61.5815
lclavicle -3.32343e-016 -2.18663e-015
lhumerus -33.5979 -13.3324 90.886
lradius 39.6075
lwrist 6.85396
lhand -20.4898 -26.3165
lfingers 7.12502
lthumb 5.86692 3.58231
rfemur 8.10332 -3.63195 11.7942
rtibia 5.73455
rfoot -11.094 0.878493
rtoes 10.9277
lfemur 10.2428 2.1668 -20.0539
ltibia 3.13141
lfoot -11.0198 6.97833
ltoes 7.29436
